<svg class="main-svg" xmlns="http://www.w3.org/2000/svg" xmlns:xlink="http://www.w3.org/1999/xlink" width="1024" height="576" style="" viewBox="0 0 1024 576"><rect x="0" y="0" width="1024" height="576" style="fill: rgb(255, 255, 255); fill-opacity: 1;"/><defs id="defs-f0c833"><g class="clips"><clipPath id="clipf0c833xyplot" class="plotclip"><rect width="842" height="396"/></clipPath><clipPath class="axesclip" id="clipf0c833x"><rect x="80" y="0" width="842" height="576"/></clipPath><clipPath class="axesclip" id="clipf0c833y"><rect x="0" y="100" width="1024" height="396"/></clipPath><clipPath class="axesclip" id="clipf0c833xy"><rect x="80" y="100" width="842" height="396"/></clipPath></g><g class="gradients"/><g class="patterns"/></defs><g class="bglayer"><rect class="bg" x="80" y="100" width="842" height="396" style="fill: rgb(229, 236, 246); fill-opacity: 1; stroke-width: 0;"/></g><g class="layer-below"><g class="imagelayer"/><g class="shapelayer"/></g><g class="cartesianlayer"><g class="subplot xy"><g class="layer-subplot"><g class="shapelayer"/><g class="imagelayer"/></g><g class="gridlayer"><g class="x"><path class="xgrid crisp" transform="translate(127.41,0)" d="M0,100v396" style="stroke: rgb(255, 255, 255); stroke-opacity: 1; stroke-width: 1px;"/><path class="xgrid crisp" transform="translate(234.15,0)" d="M0,100v396" style="stroke: rgb(255, 255, 255); stroke-opacity: 1; stroke-width: 1px;"/><path class="xgrid crisp" transform="translate(340.89,0)" d="M0,100v396" style="stroke: rgb(255, 255, 255); stroke-opacity: 1; stroke-width: 1px;"/><path class="xgrid crisp" transform="translate(447.63,0)" d="M0,100v396" style="stroke: rgb(255, 255, 255); stroke-opacity: 1; stroke-width: 1px;"/><path class="xgrid crisp" transform="translate(554.37,0)" d="M0,100v396" style="stroke: rgb(255, 255, 255); stroke-opacity: 1; stroke-width: 1px;"/><path class="xgrid crisp" transform="translate(661.11,0)" d="M0,100v396" style="stroke: rgb(255, 255, 255); stroke-opacity: 1; stroke-width: 1px;"/><path class="xgrid crisp" transform="translate(767.85,0)" d="M0,100v396" style="stroke: rgb(255, 255, 255); stroke-opacity: 1; stroke-width: 1px;"/><path class="xgrid crisp" transform="translate(874.59,0)" d="M0,100v396" style="stroke: rgb(255, 255, 255); stroke-opacity: 1; stroke-width: 1px;"/></g><g class="y"><path class="ygrid crisp" transform="translate(0,470.89)" d="M80,0h842" style="stroke: rgb(255, 255, 255); stroke-opacity: 1; stroke-width: 1px;"/><path class="ygrid crisp" transform="translate(0,421.27)" d="M80,0h842" style="stroke: rgb(255, 255, 255); stroke-opacity: 1; stroke-width: 1px;"/><path class="ygrid crisp" transform="translate(0,371.65)" d="M80,0h842" style="stroke: rgb(255, 255, 255); stroke-opacity: 1; stroke-width: 1px;"/><path class="ygrid crisp" transform="translate(0,322.03)" d="M80,0h842" style="stroke: rgb(255, 255, 255); stroke-opacity: 1; stroke-width: 1px;"/><path class="ygrid crisp" transform="translate(0,272.40999999999997)" d="M80,0h842" style="stroke: rgb(255, 255, 255); stroke-opacity: 1; stroke-width: 1px;"/><path class="ygrid crisp" transform="translate(0,222.79000000000002)" d="M80,0h842" style="stroke: rgb(255, 255, 255); stroke-opacity: 1; stroke-width: 1px;"/><path class="ygrid crisp" transform="translate(0,173.17000000000002)" d="M80,0h842" style="stroke: rgb(255, 255, 255); stroke-opacity: 1; stroke-width: 1px;"/><path class="ygrid crisp" transform="translate(0,123.53999999999999)" d="M80,0h842" style="stroke: rgb(255, 255, 255); stroke-opacity: 1; stroke-width: 1px;"/></g></g><g class="zerolinelayer"/><path class="xlines-below"/><path class="ylines-below"/><g class="overlines-below"/><g class="xaxislayer-below"/><g class="yaxislayer-below"/><g class="overaxes-below"/><g class="plot" transform="translate(80,100)" clip-path="url(#clipf0c833xyplot)"><g class="scatterlayer mlayer"><g class="trace scatter tracee1c21d" style="stroke-miterlimit: 2; opacity: 1;"><g class="fills"/><g class="errorbars"/><g class="lines"><path class="js-line" d="M47.41,370.89Q111.94,345.39 154.15,335.53C212.6,321.88 296.32,312.55 367.63,305.69C438.64,298.86 509.94,294.96 581.11,294.37Q652.26,293.78 794.59,302.12" style="vector-effect: non-scaling-stroke; fill: none; stroke: rgb(99, 110, 250); stroke-opacity: 1; stroke-width: 2px; opacity: 1;"/></g><g class="points"><path class="point" transform="translate(47.41,370.89)" d="M4.25,0A4.25,4.25 0 1,1 0,-4.25A4.25,4.25 0 0,1 4.25,0Z" style="opacity: 1; stroke-width: 2px; fill: rgb(255, 255, 255); fill-opacity: 1; stroke: rgb(99, 110, 250); stroke-opacity: 1;"/><path class="point" transform="translate(154.15,335.53)" d="M4.25,0A4.25,4.25 0 1,1 0,-4.25A4.25,4.25 0 0,1 4.25,0Z" style="opacity: 1; stroke-width: 2px; fill: rgb(255, 255, 255); fill-opacity: 1; stroke: rgb(99, 110, 250); stroke-opacity: 1;"/><path class="point" transform="translate(367.63,305.69)" d="M4.25,0A4.25,4.25 0 1,1 0,-4.25A4.25,4.25 0 0,1 4.25,0Z" style="opacity: 1; stroke-width: 2px; fill: rgb(255, 255, 255); fill-opacity: 1; stroke: rgb(99, 110, 250); stroke-opacity: 1;"/><path class="point" transform="translate(581.11,294.37)" d="M4.25,0A4.25,4.25 0 1,1 0,-4.25A4.25,4.25 0 0,1 4.25,0Z" style="opacity: 1; stroke-width: 2px; fill: rgb(255, 255, 255); fill-opacity: 1; stroke: rgb(99, 110, 250); stroke-opacity: 1;"/><path class="point" transform="translate(794.59,302.12)" d="M4.25,0A4.25,4.25 0 1,1 0,-4.25A4.25,4.25 0 0,1 4.25,0Z" style="opacity: 1; stroke-width: 2px; fill: rgb(255, 255, 255); fill-opacity: 1; stroke: rgb(99, 110, 250); stroke-opacity: 1;"/></g><g class="text"/></g><g class="trace scatter trace56cc6c" style="stroke-miterlimit: 2; opacity: 1;"><g class="fills"/><g class="errorbars"/><g class="lines"><path class="js-line" d="M47.41,370.89Q112.46,340.33 154.15,320.77C213.1,293.11 296.37,253.57 367.63,220.67C438.69,187.86 510,156.2 581.11,123.63Q652.32,91.02 794.59,25.11" style="vector-effect: non-scaling-stroke; fill: none; stroke: rgb(239, 85, 59); stroke-opacity: 1; stroke-width: 2px; opacity: 1;"/></g><g class="points"><path class="point" transform="translate(47.41,370.89)" d="M5.53,0L0,5.53L-5.53,0L0,-5.53Z" style="opacity: 1; stroke-width: 2px; fill: rgb(255, 255, 255); fill-opacity: 1; stroke: rgb(239, 85, 59); stroke-opacity: 1;"/><path class="point" transform="translate(154.15,320.77)" d="M5.53,0L0,5.53L-5.53,0L0,-5.53Z" style="opacity: 1; stroke-width: 2px; fill: rgb(255, 255, 255); fill-opacity: 1; stroke: rgb(239, 85, 59); stroke-opacity: 1;"/><path class="point" transform="translate(367.63,220.67)" d="M5.53,0L0,5.53L-5.53,0L0,-5.53Z" style="opacity: 1; stroke-width: 2px; fill: rgb(255, 255, 255); fill-opacity: 1; stroke: rgb(239, 85, 59); stroke-opacity: 1;"/><path class="point" transform="translate(581.11,123.63)" d="M5.53,0L0,5.53L-5.53,0L0,-5.53Z" style="opacity: 1; stroke-width: 2px; fill: rgb(255, 255, 255); fill-opacity: 1; stroke: rgb(239, 85, 59); stroke-opacity: 1;"/><path class="point" transform="translate(794.59,25.11)" d="M5.53,0L0,5.53L-5.53,0L0,-5.53Z" style="opacity: 1; stroke-width: 2px; fill: rgb(255, 255, 255); fill-opacity: 1; stroke: rgb(239, 85, 59); stroke-opacity: 1;"/></g><g class="text"/></g><g class="trace scatter traceae3818" style="stroke-miterlimit: 2; opacity: 1;"><g class="fills"/><g class="errorbars"/><g class="lines"><path class="js-line" d="M47.41,370.89Q112.44,340.76 154.15,321.64C213.07,294.64 295.01,246.95 367.63,224.48C437.44,202.88 509.69,194.52 581.11,187.18Q652.01,179.89 794.59,180.39" style="vector-effect: non-scaling-stroke; fill: none; stroke: rgb(0, 204, 150); stroke-opacity: 1; stroke-width: 2px; opacity: 1;"/></g><g class="points"><path class="point" transform="translate(47.41,370.89)" d="M4.25,4.25H-4.25V-4.25H4.25Z" style="opacity: 1; stroke-width: 2px; fill: rgb(255, 255, 255); fill-opacity: 1; stroke: rgb(0, 204, 150); stroke-opacity: 1;"/><path class="point" transform="translate(154.15,321.64)" d="M4.25,4.25H-4.25V-4.25H4.25Z" style="opacity: 1; stroke-width: 2px; fill: rgb(255, 255, 255); fill-opacity: 1; stroke: rgb(0, 204, 150); stroke-opacity: 1;"/><path class="point" transform="translate(367.63,224.48)" d="M4.25,4.25H-4.25V-4.25H4.25Z" style="opacity: 1; stroke-width: 2px; fill: rgb(255, 255, 255); fill-opacity: 1; stroke: rgb(0, 204, 150); stroke-opacity: 1;"/><path class="point" transform="translate(581.11,187.18)" d="M4.25,4.25H-4.25V-4.25H4.25Z" style="opacity: 1; stroke-width: 2px; fill: rgb(255, 255, 255); fill-opacity: 1; stroke: rgb(0, 204, 150); stroke-opacity: 1;"/><path class="point" transform="translate(794.59,180.39)" d="M4.25,4.25H-4.25V-4.25H4.25Z" style="opacity: 1; stroke-width: 2px; fill: rgb(255, 255, 255); fill-opacity: 1; stroke: rgb(0, 204, 150); stroke-opacity: 1;"/></g><g class="text"/></g></g></g><g class="overplot"/><path class="xlines-above crisp" d="M0,0" style="fill: none;"/><path class="ylines-above crisp" d="M0,0" style="fill: none;"/><g class="overlines-above"/><g class="xaxislayer-above"><g class="xtick"><text text-anchor="middle" x="0" y="509" transform="translate(127.41,0)" style="font-family: 'Open Sans', verdana, arial, sans-serif; font-size: 12px; fill: rgb(42, 63, 95); fill-opacity: 1; white-space: pre; opacity: 1;">1</text></g><g class="xtick"><text text-anchor="middle" x="0" y="509" style="font-family: 'Open Sans', verdana, arial, sans-serif; font-size: 12px; fill: rgb(42, 63, 95); fill-opacity: 1; white-space: pre; opacity: 1;" transform="translate(234.15,0)">2</text></g><g class="xtick"><text text-anchor="middle" x="0" y="509" style="font-family: 'Open Sans', verdana, arial, sans-serif; font-size: 12px; fill: rgb(42, 63, 95); fill-opacity: 1; white-space: pre; opacity: 1;" transform="translate(340.89,0)">3</text></g><g class="xtick"><text text-anchor="middle" x="0" y="509" style="font-family: 'Open Sans', verdana, arial, sans-serif; font-size: 12px; fill: rgb(42, 63, 95); fill-opacity: 1; white-space: pre; opacity: 1;" transform="translate(447.63,0)">4</text></g><g class="xtick"><text text-anchor="middle" x="0" y="509" style="font-family: 'Open Sans', verdana, arial, sans-serif; font-size: 12px; fill: rgb(42, 63, 95); fill-opacity: 1; white-space: pre; opacity: 1;" transform="translate(554.37,0)">5</text></g><g class="xtick"><text text-anchor="middle" x="0" y="509" style="font-family: 'Open Sans', verdana, arial, sans-serif; font-size: 12px; fill: rgb(42, 63, 95); fill-opacity: 1; white-space: pre; opacity: 1;" transform="translate(661.11,0)">6</text></g><g class="xtick"><text text-anchor="middle" x="0" y="509" style="font-family: 'Open Sans', verdana, arial, sans-serif; font-size: 12px; fill: rgb(42, 63, 95); fill-opacity: 1; white-space: pre; opacity: 1;" transform="translate(767.85,0)">7</text></g><g class="xtick"><text text-anchor="middle" x="0" y="509" style="font-family: 'Open Sans', verdana, arial, sans-serif; font-size: 12px; fill: rgb(42, 63, 95); fill-opacity: 1; white-space: pre; opacity: 1;" transform="translate(874.59,0)">8</text></g></g><g class="yaxislayer-above"><g class="ytick"><text text-anchor="end" x="79" y="4.199999999999999" transform="translate(0,470.89)" style="font-family: 'Open Sans', verdana, arial, sans-serif; font-size: 12px; fill: rgb(42, 63, 95); fill-opacity: 1; white-space: pre; opacity: 1;">1</text></g><g class="ytick"><text text-anchor="end" x="79" y="4.199999999999999" style="font-family: 'Open Sans', verdana, arial, sans-serif; font-size: 12px; fill: rgb(42, 63, 95); fill-opacity: 1; white-space: pre; opacity: 1;" transform="translate(0,421.27)">2</text></g><g class="ytick"><text text-anchor="end" x="79" y="4.199999999999999" style="font-family: 'Open Sans', verdana, arial, sans-serif; font-size: 12px; fill: rgb(42, 63, 95); fill-opacity: 1; white-space: pre; opacity: 1;" transform="translate(0,371.65)">3</text></g><g class="ytick"><text text-anchor="end" x="79" y="4.199999999999999" style="font-family: 'Open Sans', verdana, arial, sans-serif; font-size: 12px; fill: rgb(42, 63, 95); fill-opacity: 1; white-space: pre; opacity: 1;" transform="translate(0,322.03)">4</text></g><g class="ytick"><text text-anchor="end" x="79" y="4.199999999999999" style="font-family: 'Open Sans', verdana, arial, sans-serif; font-size: 12px; fill: rgb(42, 63, 95); fill-opacity: 1; white-space: pre; opacity: 1;" transform="translate(0,272.40999999999997)">5</text></g><g class="ytick"><text text-anchor="end" x="79" y="4.199999999999999" style="font-family: 'Open Sans', verdana, arial, sans-serif; font-size: 12px; fill: rgb(42, 63, 95); fill-opacity: 1; white-space: pre; opacity: 1;" transform="translate(0,222.79000000000002)">6</text></g><g class="ytick"><text text-anchor="end" x="79" y="4.199999999999999" style="font-family: 'Open Sans', verdana, arial, sans-serif; font-size: 12px; fill: rgb(42, 63, 95); fill-opacity: 1; white-space: pre; opacity: 1;" transform="translate(0,173.17000000000002)">7</text></g><g class="ytick"><text text-anchor="end" x="79" y="4.199999999999999" style="font-family: 'Open Sans', verdana, arial, sans-serif; font-size: 12px; fill: rgb(42, 63, 95); fill-opacity: 1; white-space: pre; opacity: 1;" transform="translate(0,123.53999999999999)">8</text></g></g><g class="overaxes-above"/></g></g><g class="polarlayer"/><g class="ternarylayer"/><g class="geolayer"/><g class="funnelarealayer"/><g class="pielayer"/><g class="iciclelayer"/><g class="treemaplayer"/><g class="sunburstlayer"/><g class="glimages"/><defs id="topdefs-f0c833"><g class="clips"/><clipPath id="legendf0c833"><rect width="73" height="86" x="0" y="0"/></clipPath></defs><g class="layer-above"><g class="imagelayer"/><g class="shapelayer"/></g><g class="infolayer"><g class="legend" pointer-events="all" transform="translate(938.84,100)"><rect class="bg" shape-rendering="crispEdges" width="73" height="86" x="0" y="0" style="stroke: rgb(68, 68, 68); stroke-opacity: 1; fill: rgb(255, 255, 255); fill-opacity: 1; stroke-width: 0px;"/><g class="scrollbox" transform="" clip-path="url(#legendf0c833)"><text class="legendtitletext" text-anchor="start" x="2" y="18.2" style="font-family: 'Open Sans', verdana, arial, sans-serif; font-size: 14px; fill: rgb(42, 63, 95); fill-opacity: 1; white-space: pre;">Size</text><g class="groups" transform=""><g class="traces" transform="translate(0,32.7)" style="opacity: 1;"><text class="legendtext" text-anchor="start" x="40" y="4.680000000000001" style="font-family: 'Open Sans', verdana, arial, sans-serif; font-size: 12px; fill: rgb(42, 63, 95); fill-opacity: 1; white-space: pre;">64</text><g class="layers" style="opacity: 1;"><g class="legendfill"/><g class="legendlines"><path class="js-line" d="M5,0h30" style="fill: none; stroke: rgb(99, 110, 250); stroke-opacity: 1; stroke-width: 2px;"/></g><g class="legendsymbols"><g class="legendpoints"><path class="scatterpts" transform="translate(20,0)" d="M4.25,0A4.25,4.25 0 1,1 0,-4.25A4.25,4.25 0 0,1 4.25,0Z" style="opacity: 1; stroke-width: 2px; fill: rgb(255, 255, 255); fill-opacity: 1; stroke: rgb(99, 110, 250); stroke-opacity: 1;"/></g></g></g><rect class="legendtoggle" x="0" y="-9.5" width="67.03125" height="19" style="fill: rgb(0, 0, 0); fill-opacity: 0;"/></g></g><g class="groups" transform=""><g class="traces" transform="translate(0,51.7)" style="opacity: 1;"><text class="legendtext" text-anchor="start" x="40" y="4.680000000000001" style="font-family: 'Open Sans', verdana, arial, sans-serif; font-size: 12px; fill: rgb(42, 63, 95); fill-opacity: 1; white-space: pre;">1024</text><g class="layers" style="opacity: 1;"><g class="legendfill"/><g class="legendlines"><path class="js-line" d="M5,0h30" style="fill: none; stroke: rgb(239, 85, 59); stroke-opacity: 1; stroke-width: 2px;"/></g><g class="legendsymbols"><g class="legendpoints"><path class="scatterpts" transform="translate(20,0)" d="M5.53,0L0,5.53L-5.53,0L0,-5.53Z" style="opacity: 1; stroke-width: 2px; fill: rgb(255, 255, 255); fill-opacity: 1; stroke: rgb(239, 85, 59); stroke-opacity: 1;"/></g></g></g><rect class="legendtoggle" x="0" y="-9.5" width="67.03125" height="19" style="fill: rgb(0, 0, 0); fill-opacity: 0;"/></g></g><g class="groups" transform=""><g class="traces" transform="translate(0,70.7)" style="opacity: 1;"><text class="legendtext" text-anchor="start" x="40" y="4.680000000000001" style="font-family: 'Open Sans', verdana, arial, sans-serif; font-size: 12px; fill: rgb(42, 63, 95); fill-opacity: 1; white-space: pre;">4096</text><g class="layers" style="opacity: 1;"><g class="legendfill"/><g class="legendlines"><path class="js-line" d="M5,0h30" style="fill: none; stroke: rgb(0, 204, 150); stroke-opacity: 1; stroke-width: 2px;"/></g><g class="legendsymbols"><g class="legendpoints"><path class="scatterpts" transform="translate(20,0)" d="M4.25,4.25H-4.25V-4.25H4.25Z" style="opacity: 1; stroke-width: 2px; fill: rgb(255, 255, 255); fill-opacity: 1; stroke: rgb(0, 204, 150); stroke-opacity: 1;"/></g></g></g><rect class="legendtoggle" x="0" y="-9.5" width="67.03125" height="19" style="fill: rgb(0, 0, 0); fill-opacity: 0;"/></g></g></g><rect class="scrollbar" rx="20" ry="3" width="0" height="0" x="0" y="0" style="fill: rgb(128, 139, 164); fill-opacity: 1;"/></g><g class="g-gtitle"><text class="gtitle" x="51.2" y="50" text-anchor="start" dy="0em" style="font-family: 'Open Sans', verdana, arial, sans-serif; font-size: 17px; fill: rgb(42, 63, 95); opacity: 1; font-weight: normal; white-space: pre;">Speedup vs Number of Threads in Game of Life (<tspan style="font-style:italic">1000 steps</tspan>)</text></g><g class="g-xtitle"><text class="xtitle" x="501" y="536.8" text-anchor="middle" style="font-family: 'Open Sans', verdana, arial, sans-serif; font-size: 14px; fill: rgb(42, 63, 95); opacity: 1; font-weight: normal; white-space: pre;">Thread Count</text></g><g class="g-ytitle"><text class="ytitle" transform="rotate(-90,47.5125,298)" x="47.5125" y="298" text-anchor="middle" style="font-family: 'Open Sans', verdana, arial, sans-serif; font-size: 14px; fill: rgb(42, 63, 95); opacity: 1; font-weight: normal; white-space: pre;">Speedup</text></g></g></svg>